<?xml version="1.0" encoding="utf-8"?>
<!-- Generator: Adobe Illustrator 27.5.0, SVG Export Plug-In . SVG Version: 6.00 Build 0)  -->
<svg version="1.1" id="Layer_1" xmlns="http://www.w3.org/2000/svg" xmlns:xlink="http://www.w3.org/1999/xlink" x="0px" y="0px"
	 viewBox="0 0 2023.1 440.6" style="enable-background:new 0 0 2023.1 440.6;" xml:space="preserve">
<style type="text/css">
	.st0{fill:#0000FF;}
</style>
<g>
	<g>
		<path class="st0" d="M1685.3,371c46.7,0,79.8-25.6,79.8-72.3s-36.2-70.8-81.3-70.8h-63.3V371H1685.3z M1688.3,205.2
			c37.7,0,64.8-28.6,64.8-64.8c0-37.7-27.1-64.8-64.8-64.8h-67.8v129.6H1688.3z M1596.4,53.1h88.9c55.7,0,93.4,36.2,93.4,87.4
			c0,36.2-21.1,63.3-45.2,75.3c31.6,10.5,57.2,42.2,57.2,82.9c0,52.7-40.7,94.9-97.9,94.9h-96.4V53.1z"/>
		<path class="st0" d="M1849.5,140.5h24.1v253.1h-24.1V140.5z M1861.6,53.1c10.5,0,19.6,9,19.6,19.6s-9,19.6-19.6,19.6
			c-10.5,0-19.6-9-19.6-19.6S1851,53.1,1861.6,53.1"/>
		<rect x="1947.5" y="41" class="st0" width="24.1" height="352.5"/>
	</g>
	<g>
		<polygon class="st0" points="238.4,285.1 336.3,53.1 423.7,53.1 423.7,393.6 358.9,393.6 358.9,149.5 270,364.9 206.7,364.9 
			117.8,149.5 117.8,393.6 51.6,393.6 51.6,53.1 140.4,53.1 		"/>
		<rect x="772.4" y="41" class="st0" width="67.8" height="352.5"/>
		<rect x="892.9" y="41" class="st0" width="67.8" height="352.5"/>
		<path class="st0" d="M1180.7,239.9c-1.5-31.6-24.1-51.2-54.2-51.2c-31.6,0-52.7,22.6-55.7,51.2H1180.7z M1124.9,132.9
			c78.3,0,123.5,52.7,123.5,135.6c0,4.5,0,9,0,15.1h-179.3c1.5,34.6,28.6,58.8,66.3,58.8c34.6,0,54.2-21.1,61.8-31.6l43.7,33.1
			c-9,18.1-43.7,55.7-107,55.7c-81.3,0-134.1-55.7-134.1-132.6S1052.6,132.9,1124.9,132.9"/>
		<path class="st0" d="M1421.7,200.7c-49.7,0-69.3,31.6-69.3,81.3v111.5h-67.8V139h66.3v37.7c10.5-25.6,36.2-43.7,70.8-43.7V200.7z"
			/>
		<g>
			<path class="st0" d="M616.9,134.5v60.7c30.4,8.3,51,36.3,51,72.5s-20.7,63.2-51,71.1v60.7c69.8-8.2,118.2-61.2,118.2-131.8
				C735.1,197.2,685.2,143,616.9,134.5z M579.2,195.1v-60.6C511,142.8,461,196.6,461,267.7c0,70.8,48.6,123.9,118.2,131.9v-60.7
				c-30.2-7.8-51-34.9-51-71.2C528.1,230.9,548.7,203.1,579.2,195.1z"/>
		</g>
	</g>
</g>
</svg>
